# xmcd
#
# Track frame offsets:
# 150
# 11141
# 26164
# 41180
# 60519
# 77239
# 96602
# 123069
# 138208
# 149948
#
# Disc length: 2107 seconds
#
#
# Revision: 1
# Processed by: cddbd v1.5.1PL0 Copyright (c) Steve Scherf et al.
# Submitted via: FreeRIP 2.941 
#
DISCID=9308390a
DTITLE=Duwayne Burnside And The Mississippi Mafia - Under Pressure
DYEAR=2005
DGENRE=Blues
TTITLE0=Pressure
TTITLE1=Why You Act Like That
TTITLE2=Tribute
TTITLE3=Gotta' Pretty Woman
TTITLE4=She Threw My Clothes Out
TTITLE5=Treatin' Me So Bad
TTITLE6=Bad Luck City
TTITLE7=King
TTITLE8=I Got The Blues
TTITLE9=Hard Candy Part II
EXTD=As heard on\nBluesfestRadio.com
EXTT0=
EXTT1=
EXTT2=
EXTT3=
EXTT4=
EXTT5=
EXTT6=
EXTT7=
EXTT8=
EXTT9=
PLAYORDER=
